<mxfile host="app.diagrams.net" agent="Mozilla/5.0 (Windows NT 10.0; Win64; x64; rv:132.0) Gecko/20100101 Firefox/132.0" version="24.9.1">
  <diagram name="Page-1" id="KAWNbxfGmZyHJ1Ulraq9">
    <mxGraphModel dx="1520" dy="649" grid="1" gridSize="10" guides="1" tooltips="1" connect="1" arrows="1" fold="1" page="1" pageScale="1" pageWidth="827" pageHeight="1169" math="0" shadow="0">
      <root>
        <mxCell id="0" />
        <mxCell id="1" parent="0" />
        <mxCell id="KDoyVVp4210FgwLk8HPQ-1" value="&lt;div&gt;Client&lt;/div&gt;&lt;div&gt;&lt;br&gt;&lt;/div&gt;" style="shape=umlActor;verticalLabelPosition=bottom;verticalAlign=top;html=1;outlineConnect=0;" vertex="1" parent="1">
          <mxGeometry x="40" y="370" width="30" height="60" as="geometry" />
        </mxCell>
        <mxCell id="KDoyVVp4210FgwLk8HPQ-21" style="edgeStyle=orthogonalEdgeStyle;rounded=0;orthogonalLoop=1;jettySize=auto;html=1;entryX=0;entryY=0.5;entryDx=0;entryDy=0;dashed=1;exitX=1;exitY=0.5;exitDx=0;exitDy=0;" edge="1" parent="1" source="KDoyVVp4210FgwLk8HPQ-3" target="KDoyVVp4210FgwLk8HPQ-14">
          <mxGeometry relative="1" as="geometry">
            <mxPoint x="360" y="400" as="sourcePoint" />
          </mxGeometry>
        </mxCell>
        <mxCell id="KDoyVVp4210FgwLk8HPQ-3" value="Réserver une chambre" style="ellipse;whiteSpace=wrap;html=1;" vertex="1" parent="1">
          <mxGeometry x="240" y="360" width="120" height="80" as="geometry" />
        </mxCell>
        <mxCell id="KDoyVVp4210FgwLk8HPQ-5" value="&lt;div&gt;Gérant&lt;/div&gt;" style="shape=umlActor;verticalLabelPosition=bottom;verticalAlign=top;html=1;outlineConnect=0;" vertex="1" parent="1">
          <mxGeometry x="40" y="730" width="30" height="60" as="geometry" />
        </mxCell>
        <mxCell id="KDoyVVp4210FgwLk8HPQ-20" style="edgeStyle=orthogonalEdgeStyle;rounded=0;orthogonalLoop=1;jettySize=auto;html=1;entryX=0;entryY=0.5;entryDx=0;entryDy=0;dashed=1;" edge="1" parent="1" source="KDoyVVp4210FgwLk8HPQ-6" target="KDoyVVp4210FgwLk8HPQ-14">
          <mxGeometry relative="1" as="geometry" />
        </mxCell>
        <mxCell id="KDoyVVp4210FgwLk8HPQ-6" value="Ajouter une chambre" style="ellipse;whiteSpace=wrap;html=1;" vertex="1" parent="1">
          <mxGeometry x="240" y="600" width="120" height="80" as="geometry" />
        </mxCell>
        <mxCell id="KDoyVVp4210FgwLk8HPQ-19" style="edgeStyle=orthogonalEdgeStyle;rounded=0;orthogonalLoop=1;jettySize=auto;html=1;entryX=0;entryY=0.5;entryDx=0;entryDy=0;dashed=1;" edge="1" parent="1" source="KDoyVVp4210FgwLk8HPQ-7" target="KDoyVVp4210FgwLk8HPQ-14">
          <mxGeometry relative="1" as="geometry" />
        </mxCell>
        <mxCell id="KDoyVVp4210FgwLk8HPQ-7" value="Supprimer une chambre" style="ellipse;whiteSpace=wrap;html=1;" vertex="1" parent="1">
          <mxGeometry x="240" y="720" width="120" height="80" as="geometry" />
        </mxCell>
        <mxCell id="KDoyVVp4210FgwLk8HPQ-18" style="edgeStyle=orthogonalEdgeStyle;rounded=0;orthogonalLoop=1;jettySize=auto;html=1;entryX=0;entryY=0.5;entryDx=0;entryDy=0;dashed=1;" edge="1" parent="1" source="KDoyVVp4210FgwLk8HPQ-8" target="KDoyVVp4210FgwLk8HPQ-14">
          <mxGeometry relative="1" as="geometry" />
        </mxCell>
        <mxCell id="KDoyVVp4210FgwLk8HPQ-8" value="&lt;div&gt;Modifier/suspendre une chambre&lt;/div&gt;" style="ellipse;whiteSpace=wrap;html=1;" vertex="1" parent="1">
          <mxGeometry x="240" y="840" width="120" height="80" as="geometry" />
        </mxCell>
        <mxCell id="KDoyVVp4210FgwLk8HPQ-12" value="" style="endArrow=none;html=1;rounded=0;entryX=0;entryY=0.5;entryDx=0;entryDy=0;" edge="1" parent="1" source="KDoyVVp4210FgwLk8HPQ-1" target="KDoyVVp4210FgwLk8HPQ-3">
          <mxGeometry width="50" height="50" relative="1" as="geometry">
            <mxPoint x="180" y="490" as="sourcePoint" />
            <mxPoint x="230" y="440" as="targetPoint" />
          </mxGeometry>
        </mxCell>
        <mxCell id="KDoyVVp4210FgwLk8HPQ-13" value="" style="endArrow=classic;html=1;rounded=0;" edge="1" parent="1" source="KDoyVVp4210FgwLk8HPQ-5" target="KDoyVVp4210FgwLk8HPQ-1">
          <mxGeometry width="50" height="50" relative="1" as="geometry">
            <mxPoint x="150" y="640" as="sourcePoint" />
            <mxPoint x="200" y="590" as="targetPoint" />
          </mxGeometry>
        </mxCell>
        <mxCell id="KDoyVVp4210FgwLk8HPQ-14" value="&lt;div&gt;&amp;lt;&amp;lt;fragement&amp;gt;&amp;gt;&lt;/div&gt;&lt;div&gt;Authentification&lt;br&gt;&lt;/div&gt;" style="ellipse;whiteSpace=wrap;html=1;" vertex="1" parent="1">
          <mxGeometry x="520" y="600" width="120" height="80" as="geometry" />
        </mxCell>
        <mxCell id="KDoyVVp4210FgwLk8HPQ-15" value="" style="endArrow=none;html=1;rounded=0;entryX=0;entryY=0.5;entryDx=0;entryDy=0;" edge="1" parent="1" source="KDoyVVp4210FgwLk8HPQ-5" target="KDoyVVp4210FgwLk8HPQ-6">
          <mxGeometry width="50" height="50" relative="1" as="geometry">
            <mxPoint x="150" y="770" as="sourcePoint" />
            <mxPoint x="200" y="720" as="targetPoint" />
          </mxGeometry>
        </mxCell>
        <mxCell id="KDoyVVp4210FgwLk8HPQ-16" value="" style="endArrow=none;html=1;rounded=0;entryX=0;entryY=0.5;entryDx=0;entryDy=0;" edge="1" parent="1" source="KDoyVVp4210FgwLk8HPQ-5" target="KDoyVVp4210FgwLk8HPQ-8">
          <mxGeometry width="50" height="50" relative="1" as="geometry">
            <mxPoint x="80" y="760" as="sourcePoint" />
            <mxPoint x="240" y="650" as="targetPoint" />
          </mxGeometry>
        </mxCell>
        <mxCell id="KDoyVVp4210FgwLk8HPQ-17" value="" style="endArrow=none;html=1;rounded=0;entryX=0;entryY=0.5;entryDx=0;entryDy=0;" edge="1" parent="1" source="KDoyVVp4210FgwLk8HPQ-5" target="KDoyVVp4210FgwLk8HPQ-7">
          <mxGeometry width="50" height="50" relative="1" as="geometry">
            <mxPoint x="90" y="770" as="sourcePoint" />
            <mxPoint x="250" y="660" as="targetPoint" />
          </mxGeometry>
        </mxCell>
        <mxCell id="KDoyVVp4210FgwLk8HPQ-24" value="&amp;lt;include&amp;gt;" style="text;html=1;align=center;verticalAlign=middle;whiteSpace=wrap;rounded=0;" vertex="1" parent="1">
          <mxGeometry x="440" y="620" width="60" height="30" as="geometry" />
        </mxCell>
        <mxCell id="KDoyVVp4210FgwLk8HPQ-38" style="edgeStyle=orthogonalEdgeStyle;rounded=0;orthogonalLoop=1;jettySize=auto;html=1;entryX=0;entryY=0.5;entryDx=0;entryDy=0;dashed=1;" edge="1" parent="1" source="KDoyVVp4210FgwLk8HPQ-36" target="KDoyVVp4210FgwLk8HPQ-14">
          <mxGeometry relative="1" as="geometry" />
        </mxCell>
        <mxCell id="KDoyVVp4210FgwLk8HPQ-36" value="Consulter les réservations" style="ellipse;whiteSpace=wrap;html=1;" vertex="1" parent="1">
          <mxGeometry x="240" y="480" width="120" height="80" as="geometry" />
        </mxCell>
        <mxCell id="KDoyVVp4210FgwLk8HPQ-37" value="" style="endArrow=none;html=1;rounded=0;entryX=0;entryY=0.5;entryDx=0;entryDy=0;" edge="1" parent="1" source="KDoyVVp4210FgwLk8HPQ-1" target="KDoyVVp4210FgwLk8HPQ-36">
          <mxGeometry width="50" height="50" relative="1" as="geometry">
            <mxPoint x="80" y="410" as="sourcePoint" />
            <mxPoint x="250" y="410" as="targetPoint" />
          </mxGeometry>
        </mxCell>
        <mxCell id="KDoyVVp4210FgwLk8HPQ-39" value="Système Bancaire" style="shape=umlActor;verticalLabelPosition=bottom;verticalAlign=top;html=1;outlineConnect=0;" vertex="1" parent="1">
          <mxGeometry x="760" y="370" width="30" height="60" as="geometry" />
        </mxCell>
        <mxCell id="KDoyVVp4210FgwLk8HPQ-41" value="" style="endArrow=none;html=1;rounded=0;" edge="1" parent="1" source="KDoyVVp4210FgwLk8HPQ-3" target="KDoyVVp4210FgwLk8HPQ-39">
          <mxGeometry width="50" height="50" relative="1" as="geometry">
            <mxPoint x="360" y="400" as="sourcePoint" />
            <mxPoint x="500" y="450" as="targetPoint" />
          </mxGeometry>
        </mxCell>
      </root>
    </mxGraphModel>
  </diagram>
</mxfile>
